<?xml version="1.0" encoding="utf-8"?>
<!-- Generator: Adobe Illustrator 23.0.3, SVG Export Plug-In . SVG Version: 6.00 Build 0)  -->
<svg version="1.1" id="Layer_1" xmlns="http://www.w3.org/2000/svg" xmlns:xlink="http://www.w3.org/1999/xlink" x="0px" y="0px"
	 viewBox="0 0 277.7 82.1" style="enable-background:new 0 0 277.7 82.1;" xml:space="preserve">
<style type="text/css">
	.st0{fill-rule:evenodd;clip-rule:evenodd;fill:#01000B;}
	.st1{fill-rule:evenodd;clip-rule:evenodd;fill:#AFB1B8;}
	.st2{fill-rule:evenodd;clip-rule:evenodd;fill:#FFFFFF;}
	.st3{fill-rule:evenodd;clip-rule:evenodd;fill:#231F20;}
</style>
<g>
	<g>
		<polygon class="st0" points="138.3,39.7 133.2,39.7 133.2,22.9 113,22.9 113,39.7 107.9,39.7 107.9,1.3 113,1.3 113,17.9 
			133.2,17.9 133.2,1.3 138.3,1.3 		"/>
		<polygon class="st1" points="168.8,39.7 163.6,39.7 163.6,22.9 143.5,22.9 143.5,39.7 138.3,39.7 138.3,1.3 143.5,1.3 143.5,17.9 
			163.6,17.9 163.6,1.3 168.8,1.3 		"/>
		<rect x="133.2" y="17.9" class="st2" width="5.1" height="5"/>
		<rect x="138.3" y="17.9" class="st0" width="5.1" height="5"/>
	</g>
	<g>
		<path class="st3" d="M13.2,62.1V47.6h-2v5.9H3v-5.9H1v14.5h2v-6.5h8.2v6.5H13.2L13.2,62.1z M123.7,62.1V47.6h-2v5.9h-8.2v-5.9h-2
			v14.5h2v-6.5h8.2v6.5H123.7L123.7,62.1z M32.1,62.1l-7.4-15.5l-7.3,15.5h2.3l1.8-3.7h6.5l1.9,3.7H32.1L32.1,62.1z M27.1,56.3h-4.8
			l2.4-5.3L27.1,56.3L27.1,56.3z M64,49.7v-2.1H52.2v2.1h4.9v12.4h2V49.7H64L64,49.7z M80.8,62.1V60h-9.7v-4.4h8.4v-2.1h-8.4v-3.8
			h9.4v-2.1H69.1v14.5H80.8L80.8,62.1z M142.1,62.1V60h-9.7v-4.4h8.4v-2.1h-8.4v-3.8h9.4v-2.1h-11.4v14.5H142.1L142.1,62.1z
			 M174.3,62.1V60h-8.4V47.6h-2v14.5H174.3L174.3,62.1z M188.6,49.7v-2.1h-11.8v2.1h4.9v12.4h2V49.7H188.6L188.6,49.7z M205.9,62.1
			V47.6h-2v5.9h-8.2v-5.9h-2v14.5h2v-6.5h8.2v6.5H205.9L205.9,62.1z M225.8,59.5l-1.3-1.5c-1.5,1.6-2.9,2.3-5,2.3
			c-3.1,0-5.9-1.9-5.9-5.5c0-3.3,2.5-5.5,5.5-5.5c2,0,3.6,0.9,5.1,2.2l1.5-1.3c-1.8-1.8-4.1-3-6.7-3c-4.1,0-7.4,3.2-7.4,7.6
			c0,4.6,3.5,7.6,7.8,7.6C221.9,62.5,224.1,61.6,225.8,59.5L225.8,59.5z M276.6,62.1V60h-9.7v-4.4h8.4v-2.1h-8.4v-3.8h9.4v-2.1
			h-11.4v14.5H276.6z"/>
		<g>
			<path class="st2" d="M48.9,51.9c0-2.8-1.8-4.3-4.4-4.3h-8.2v14.5h2v-6h5.2h0.9h0.3l0.9-0.1C47.7,55.5,48.9,54.1,48.9,51.9
				L48.9,51.9z M46.9,51.8c0,1.5-1,2.2-2.4,2.2h-6.2v-4.3h6.2C45.8,49.7,46.9,50.2,46.9,51.8z"/>
		</g>
		<path class="st3" d="M160.4,62.1l-7.4-15.5l-7.3,15.5h2.3l1.8-3.7h6.5l1.9,3.7H160.4L160.4,62.1z M155.3,56.3h-4.8l2.4-5.3
			L155.3,56.3z"/>
		<path class="st3" d="M243.5,62.1l-7.4-15.5l-7.3,15.5h2.3l1.8-3.7h6.5l1.9,3.7H243.5L243.5,62.1z M238.5,56.3h-4.8l2.4-5.3
			L238.5,56.3z"/>
		<g>
			<path class="st2" d="M98.1,51.9c0-2.8-1.8-4.3-4.4-4.3h-8.2v14.5h2v-6h5.2h0.9H94l0.9-0.1C96.9,55.5,98.1,54.1,98.1,51.9
				L98.1,51.9z M96.1,51.8c0,1.5-1,2.2-2.4,2.2h-6.2v-4.3h6.2C95.1,49.7,96.1,50.2,96.1,51.8z"/>
		</g>
		<g>
			<path class="st2" d="M259.7,51.9c0-2.8-1.8-4.3-4.4-4.3h-8.2v14.5h2v-6h5.2h0.9h0.3l0.9-0.1C258.5,55.5,259.7,54.1,259.7,51.9
				L259.7,51.9z M257.7,51.8c0,1.5-1,2.2-2.4,2.2h-6.2v-4.3h6.2C256.6,49.7,257.7,50.2,257.7,51.8z"/>
		</g>
		<path class="st3" d="M48.9,51.9c0-2.8-1.8-4.3-4.4-4.3h-8.2v14.5h2v-6h5.2l2.8,6h2.3L45.7,56C47.7,55.5,48.9,54.1,48.9,51.9
			L48.9,51.9z M46.9,51.8c0,1.5-1,2.2-2.4,2.2h-6.2v-4.3h6.2C45.8,49.7,46.9,50.2,46.9,51.8L46.9,51.8z M98.4,51.9
			c0-2.8-1.8-4.3-4.4-4.3h-8.2v14.5h2v-6h5.2l2.8,6h2.3L95.2,56C97.3,55.5,98.4,54.1,98.4,51.9L98.4,51.9z M96.4,51.8
			c0,1.5-1,2.2-2.4,2.2h-6.2v-4.3h6.2C95.4,49.7,96.4,50.2,96.4,51.8L96.4,51.8z M259.8,51.9c0-2.8-1.8-4.3-4.4-4.3h-8.2v14.5h2v-6
			h5.2l2.8,6h2.3l-2.9-6.1C258.6,55.5,259.8,54.1,259.8,51.9L259.8,51.9z M257.8,51.8c0,1.5-1,2.2-2.4,2.2h-6.2v-4.3h6.2
			C256.8,49.7,257.8,50.2,257.8,51.8z"/>
	</g>
	<path class="st3" d="M61.2,71.3H62L59.1,78h-0.7l-1.5-3.5L55.5,78h-0.7l-2.9-6.8h0.9l2.5,5.9l1.3-3.1l-1.2-2.8h0.7l0.9,2.2l0.9-2.2
		h0.8L57.4,74l1.3,3.1L61.2,71.3L61.2,71.3z M68.5,78.1c-0.5,0-0.9-0.1-1.4-0.3c-0.4-0.2-0.8-0.4-1.1-0.8c-0.3-0.3-0.5-0.7-0.7-1.1
		c-0.2-0.4-0.3-0.9-0.3-1.4c0-0.5,0.1-0.9,0.3-1.3c0.2-0.4,0.4-0.8,0.7-1.1c0.3-0.3,0.7-0.6,1.1-0.8c0.4-0.2,0.9-0.3,1.3-0.3
		c0.5,0,0.9,0.1,1.4,0.3c0.4,0.2,0.8,0.4,1.1,0.8c0.3,0.3,0.5,0.7,0.7,1.1c0.2,0.4,0.2,0.9,0.2,1.3c0,0.1,0,0.1,0,0.2
		c0,0.1,0,0.1,0,0.1H66c0,0.4,0.1,0.7,0.3,1c0.1,0.3,0.3,0.6,0.6,0.8c0.2,0.2,0.5,0.4,0.8,0.5c0.3,0.1,0.6,0.2,0.9,0.2
		c0.2,0,0.4,0,0.6-0.1c0.2-0.1,0.4-0.1,0.6-0.2c0.2-0.1,0.3-0.2,0.5-0.4c0.1-0.2,0.3-0.3,0.3-0.5l0.8,0.2c-0.1,0.3-0.3,0.5-0.4,0.7
		c-0.2,0.2-0.4,0.4-0.7,0.5c-0.3,0.2-0.5,0.3-0.8,0.4C69.2,78.1,68.8,78.1,68.5,78.1L68.5,78.1z M71,74.3c0-0.4-0.1-0.7-0.3-1
		c-0.1-0.3-0.3-0.6-0.5-0.8c-0.2-0.2-0.5-0.4-0.8-0.5c-0.3-0.1-0.6-0.2-0.9-0.2c-0.3,0-0.6,0.1-0.9,0.2c-0.3,0.1-0.6,0.3-0.8,0.5
		c-0.2,0.2-0.4,0.5-0.5,0.8c-0.1,0.3-0.2,0.6-0.2,1H71L71,74.3z M75.9,68.5h0.9v7.9c0,0.3,0.1,0.4,0.2,0.6c0.1,0.1,0.3,0.2,0.6,0.2
		c0.1,0,0.2,0,0.3,0c0.1,0,0.3-0.1,0.4-0.1l0.2,0.7c-0.2,0.1-0.4,0.1-0.6,0.2c-0.2,0-0.4,0.1-0.6,0.1c-0.4,0-0.7-0.1-1-0.3
		c-0.2-0.2-0.4-0.6-0.4-1V68.5L75.9,68.5z M82.1,68.5H83v7.9c0,0.3,0.1,0.4,0.2,0.6c0.1,0.1,0.3,0.2,0.6,0.2c0.1,0,0.2,0,0.3,0
		c0.1,0,0.3-0.1,0.4-0.1l0.2,0.7C84.4,77.9,84.2,78,84,78c-0.2,0-0.4,0.1-0.6,0.1c-0.4,0-0.7-0.1-1-0.3c-0.2-0.2-0.4-0.6-0.4-1V68.5
		L82.1,68.5z M93.9,78H93v-3.8c0-0.8-0.1-1.4-0.4-1.8c-0.2-0.4-0.6-0.5-1.1-0.5c-0.3,0-0.5,0-0.8,0.1c-0.3,0.1-0.5,0.2-0.7,0.4
		c-0.2,0.2-0.4,0.4-0.6,0.6c-0.2,0.2-0.3,0.5-0.4,0.8V78h-0.9v-6.8H89v1.5c0.3-0.5,0.7-0.9,1.2-1.2c0.5-0.3,1.1-0.5,1.7-0.5
		c0.4,0,0.7,0.1,0.9,0.2c0.3,0.1,0.5,0.3,0.6,0.6c0.2,0.3,0.3,0.6,0.3,0.9c0.1,0.4,0.1,0.8,0.1,1.2V78L93.9,78z M101.3,78.1
		c-0.5,0-0.9-0.1-1.4-0.3c-0.4-0.2-0.8-0.4-1.1-0.8c-0.3-0.3-0.5-0.7-0.7-1.1C98,75.6,98,75.1,98,74.6c0-0.5,0.1-0.9,0.3-1.3
		c0.2-0.4,0.4-0.8,0.7-1.1c0.3-0.3,0.7-0.6,1.1-0.8c0.4-0.2,0.9-0.3,1.3-0.3c0.5,0,0.9,0.1,1.4,0.3c0.4,0.2,0.8,0.4,1.1,0.8
		c0.3,0.3,0.5,0.7,0.7,1.1c0.2,0.4,0.2,0.9,0.2,1.3c0,0.1,0,0.1,0,0.2c0,0.1,0,0.1,0,0.1h-5.8c0,0.4,0.1,0.7,0.3,1
		c0.1,0.3,0.3,0.6,0.6,0.8c0.2,0.2,0.5,0.4,0.8,0.5c0.3,0.1,0.6,0.2,0.9,0.2c0.2,0,0.4,0,0.6-0.1c0.2-0.1,0.4-0.1,0.6-0.2
		c0.2-0.1,0.3-0.2,0.5-0.4c0.1-0.2,0.3-0.3,0.3-0.5l0.8,0.2c-0.1,0.3-0.3,0.5-0.4,0.7c-0.2,0.2-0.4,0.4-0.7,0.5
		c-0.3,0.2-0.5,0.3-0.8,0.4C102,78.1,101.7,78.1,101.3,78.1L101.3,78.1z M103.8,74.3c0-0.4-0.1-0.7-0.3-1c-0.1-0.3-0.3-0.6-0.5-0.8
		c-0.2-0.2-0.5-0.4-0.8-0.5c-0.3-0.1-0.6-0.2-0.9-0.2c-0.3,0-0.6,0.1-0.9,0.2c-0.3,0.1-0.6,0.3-0.8,0.5c-0.2,0.2-0.4,0.5-0.5,0.8
		c-0.1,0.3-0.2,0.6-0.2,1H103.8L103.8,74.3z M110.9,78.1c-0.5,0-1-0.1-1.5-0.3c-0.5-0.2-0.9-0.4-1.3-0.8l0.4-0.6
		c0.4,0.3,0.8,0.5,1.2,0.7c0.4,0.2,0.8,0.2,1.3,0.2c0.5,0,1-0.1,1.3-0.3c0.3-0.2,0.5-0.5,0.5-0.9c0-0.2,0-0.3-0.1-0.5
		c-0.1-0.1-0.2-0.2-0.4-0.3c-0.2-0.1-0.4-0.2-0.6-0.3c-0.3-0.1-0.6-0.1-0.9-0.2c-0.4-0.1-0.7-0.2-1-0.3c-0.3-0.1-0.5-0.2-0.7-0.3
		c-0.2-0.1-0.3-0.3-0.4-0.4c-0.1-0.2-0.1-0.4-0.1-0.7c0-0.3,0.1-0.6,0.2-0.9c0.1-0.3,0.3-0.5,0.5-0.6c0.2-0.2,0.5-0.3,0.8-0.4
		c0.3-0.1,0.6-0.1,1-0.1c0.5,0,1,0.1,1.4,0.3c0.4,0.2,0.8,0.4,1,0.7l-0.4,0.5c-0.3-0.3-0.6-0.5-0.9-0.6c-0.4-0.1-0.7-0.2-1.1-0.2
		c-0.2,0-0.5,0-0.6,0.1c-0.2,0-0.4,0.1-0.5,0.2c-0.2,0.1-0.3,0.2-0.4,0.4c-0.1,0.2-0.1,0.3-0.1,0.6c0,0.2,0,0.3,0.1,0.4
		c0.1,0.1,0.2,0.2,0.3,0.3c0.1,0.1,0.3,0.2,0.5,0.2c0.2,0.1,0.5,0.1,0.8,0.2c0.4,0.1,0.8,0.2,1.1,0.3c0.3,0.1,0.6,0.2,0.8,0.4
		c0.2,0.1,0.4,0.3,0.5,0.5c0.1,0.2,0.2,0.4,0.2,0.7c0,0.6-0.2,1.1-0.7,1.5C112.4,78,111.7,78.1,110.9,78.1L110.9,78.1z M119.9,78.1
		c-0.5,0-1-0.1-1.5-0.3c-0.5-0.2-0.9-0.4-1.3-0.8l0.4-0.6c0.4,0.3,0.8,0.5,1.2,0.7c0.4,0.2,0.8,0.2,1.3,0.2c0.5,0,1-0.1,1.3-0.3
		c0.3-0.2,0.5-0.5,0.5-0.9c0-0.2,0-0.3-0.1-0.5c-0.1-0.1-0.2-0.2-0.4-0.3c-0.2-0.1-0.4-0.2-0.6-0.3c-0.3-0.1-0.6-0.1-0.9-0.2
		c-0.4-0.1-0.7-0.2-1-0.3c-0.3-0.1-0.5-0.2-0.7-0.3c-0.2-0.1-0.3-0.3-0.4-0.4c-0.1-0.2-0.1-0.4-0.1-0.7c0-0.3,0.1-0.6,0.2-0.9
		c0.1-0.3,0.3-0.5,0.5-0.6c0.2-0.2,0.5-0.3,0.8-0.4c0.3-0.1,0.6-0.1,1-0.1c0.5,0,1,0.1,1.4,0.3c0.4,0.2,0.8,0.4,1,0.7l-0.4,0.5
		c-0.3-0.3-0.6-0.5-0.9-0.6c-0.4-0.1-0.7-0.2-1.1-0.2c-0.2,0-0.5,0-0.6,0.1c-0.2,0-0.4,0.1-0.5,0.2c-0.2,0.1-0.3,0.2-0.4,0.4
		c-0.1,0.2-0.1,0.3-0.1,0.6c0,0.2,0,0.3,0.1,0.4c0.1,0.1,0.2,0.2,0.3,0.3c0.1,0.1,0.3,0.2,0.5,0.2c0.2,0.1,0.5,0.1,0.8,0.2
		c0.4,0.1,0.8,0.2,1.1,0.3c0.3,0.1,0.6,0.2,0.8,0.4c0.2,0.1,0.4,0.3,0.5,0.5c0.1,0.2,0.2,0.4,0.2,0.7c0,0.6-0.2,1.1-0.7,1.5
		C121.3,78,120.7,78.1,119.9,78.1L119.9,78.1z M135.5,78.1c-0.5,0-0.9-0.1-1.4-0.3c-0.4-0.2-0.8-0.4-1.1-0.8
		c-0.3-0.3-0.5-0.7-0.7-1.1c-0.2-0.4-0.3-0.9-0.3-1.4c0-0.5,0.1-0.9,0.3-1.3c0.2-0.4,0.4-0.8,0.7-1.1c0.3-0.3,0.7-0.6,1.1-0.8
		c0.4-0.2,0.9-0.3,1.3-0.3c0.5,0,0.9,0.1,1.4,0.3c0.4,0.2,0.8,0.4,1.1,0.8c0.3,0.3,0.5,0.7,0.7,1.1c0.2,0.4,0.2,0.9,0.2,1.3
		c0,0.1,0,0.1,0,0.2c0,0.1,0,0.1,0,0.1H133c0,0.4,0.1,0.7,0.3,1c0.1,0.3,0.3,0.6,0.6,0.8c0.2,0.2,0.5,0.4,0.8,0.5
		c0.3,0.1,0.6,0.2,0.9,0.2c0.2,0,0.4,0,0.6-0.1c0.2-0.1,0.4-0.1,0.6-0.2c0.2-0.1,0.3-0.2,0.5-0.4c0.1-0.2,0.3-0.3,0.3-0.5l0.8,0.2
		c-0.1,0.3-0.3,0.5-0.4,0.7c-0.2,0.2-0.4,0.4-0.7,0.5c-0.3,0.2-0.5,0.3-0.8,0.4C136.1,78.1,135.8,78.1,135.5,78.1L135.5,78.1z
		 M138,74.3c0-0.4-0.1-0.7-0.3-1c-0.1-0.3-0.3-0.6-0.5-0.8c-0.2-0.2-0.5-0.4-0.8-0.5c-0.3-0.1-0.6-0.2-0.9-0.2
		c-0.3,0-0.6,0.1-0.9,0.2c-0.3,0.1-0.6,0.3-0.8,0.5c-0.2,0.2-0.4,0.5-0.5,0.8c-0.1,0.3-0.2,0.6-0.2,1H138L138,74.3z M148.5,78h-0.9
		v-3.8c0-0.8-0.1-1.4-0.4-1.8c-0.2-0.4-0.6-0.5-1.1-0.5c-0.3,0-0.5,0-0.8,0.1c-0.3,0.1-0.5,0.2-0.7,0.4c-0.2,0.2-0.4,0.4-0.6,0.6
		c-0.2,0.2-0.3,0.5-0.4,0.8V78h-0.9v-6.8h0.8v1.5c0.3-0.5,0.7-0.9,1.2-1.2c0.5-0.3,1.1-0.5,1.7-0.5c0.4,0,0.7,0.1,0.9,0.2
		c0.3,0.1,0.5,0.3,0.6,0.6c0.2,0.3,0.3,0.6,0.3,0.9c0.1,0.4,0.1,0.8,0.1,1.2V78L148.5,78z M156.2,77.7c-0.1,0-0.1,0.1-0.2,0.1
		c-0.1,0-0.2,0.1-0.3,0.1c-0.1,0-0.3,0.1-0.4,0.1c-0.2,0-0.3,0.1-0.5,0.1c-0.2,0-0.4,0-0.5-0.1c-0.2-0.1-0.3-0.1-0.5-0.2
		c-0.1-0.1-0.2-0.2-0.3-0.4c-0.1-0.2-0.1-0.4-0.1-0.6V72h-0.9v-0.7h0.9V69h0.9v2.3h1.6V72h-1.6v4.6c0,0.3,0.1,0.4,0.3,0.6
		c0.2,0.1,0.3,0.2,0.6,0.2c0.3,0,0.5,0,0.7-0.1c0.2-0.1,0.3-0.1,0.4-0.2L156.2,77.7L156.2,77.7z M162.7,78.1c-0.5,0-0.9-0.1-1.4-0.3
		c-0.4-0.2-0.8-0.4-1.1-0.8c-0.3-0.3-0.5-0.7-0.7-1.1c-0.2-0.4-0.3-0.9-0.3-1.4c0-0.5,0.1-0.9,0.3-1.3c0.2-0.4,0.4-0.8,0.7-1.1
		c0.3-0.3,0.7-0.6,1.1-0.8c0.4-0.2,0.9-0.3,1.3-0.3c0.5,0,0.9,0.1,1.4,0.3c0.4,0.2,0.8,0.4,1.1,0.8c0.3,0.3,0.5,0.7,0.7,1.1
		c0.2,0.4,0.2,0.9,0.2,1.3c0,0.1,0,0.1,0,0.2c0,0.1,0,0.1,0,0.1h-5.8c0,0.4,0.1,0.7,0.3,1c0.1,0.3,0.3,0.6,0.6,0.8
		c0.2,0.2,0.5,0.4,0.8,0.5c0.3,0.1,0.6,0.2,0.9,0.2c0.2,0,0.4,0,0.6-0.1c0.2-0.1,0.4-0.1,0.6-0.2c0.2-0.1,0.3-0.2,0.5-0.4
		c0.1-0.2,0.3-0.3,0.3-0.5l0.8,0.2c-0.1,0.3-0.3,0.5-0.4,0.7c-0.2,0.2-0.4,0.4-0.7,0.5c-0.3,0.2-0.5,0.3-0.8,0.4
		C163.4,78.1,163.1,78.1,162.7,78.1L162.7,78.1z M165.2,74.3c0-0.4-0.1-0.7-0.3-1c-0.1-0.3-0.3-0.6-0.5-0.8
		c-0.2-0.2-0.5-0.4-0.8-0.5c-0.3-0.1-0.6-0.2-0.9-0.2c-0.3,0-0.6,0.1-0.9,0.2c-0.3,0.1-0.6,0.3-0.8,0.5c-0.2,0.2-0.4,0.5-0.5,0.8
		c-0.1,0.3-0.2,0.6-0.2,1H165.2L165.2,74.3z M173.5,72c-0.6,0-1.1,0.2-1.6,0.5c-0.4,0.3-0.8,0.7-0.9,1.3V78h-0.9v-6.8h0.8v1.6
		c0.3-0.5,0.6-0.9,1-1.2c0.4-0.3,0.9-0.4,1.4-0.4c0.1,0,0.1,0,0.2,0V72L173.5,72z M180.7,78.1c-0.6,0-1.1-0.1-1.5-0.4
		c-0.4-0.3-0.8-0.7-1.1-1.1v4.2h-0.9v-9.5h0.8v1.3c0.3-0.4,0.6-0.8,1.1-1c0.4-0.3,0.9-0.4,1.4-0.4c0.5,0,0.9,0.1,1.3,0.3
		c0.4,0.2,0.7,0.5,1,0.8c0.3,0.3,0.5,0.7,0.7,1.1c0.2,0.4,0.2,0.9,0.2,1.3c0,0.5-0.1,0.9-0.2,1.3c-0.1,0.4-0.4,0.8-0.6,1.1
		c-0.3,0.3-0.6,0.6-1,0.8C181.6,78.1,181.2,78.1,180.7,78.1L180.7,78.1z M180.5,77.4c0.4,0,0.7-0.1,1-0.2c0.3-0.2,0.6-0.4,0.8-0.6
		c0.2-0.3,0.4-0.5,0.5-0.9c0.1-0.3,0.2-0.7,0.2-1c0-0.4-0.1-0.7-0.2-1c-0.1-0.3-0.3-0.6-0.5-0.9c-0.2-0.3-0.5-0.4-0.8-0.6
		c-0.3-0.1-0.6-0.2-1-0.2c-0.2,0-0.5,0-0.7,0.1c-0.2,0.1-0.5,0.2-0.7,0.4c-0.2,0.2-0.4,0.3-0.5,0.5c-0.2,0.2-0.2,0.4-0.3,0.6v2.1
		c0.1,0.2,0.2,0.5,0.4,0.7c0.2,0.2,0.3,0.4,0.5,0.5c0.2,0.2,0.4,0.3,0.7,0.4C180,77.3,180.2,77.4,180.5,77.4L180.5,77.4z M191.3,72
		c-0.6,0-1.1,0.2-1.6,0.5c-0.4,0.3-0.8,0.7-0.9,1.3V78h-0.9v-6.8h0.8v1.6c0.3-0.5,0.6-0.9,1-1.2c0.4-0.3,0.9-0.4,1.4-0.4
		c0.1,0,0.1,0,0.2,0V72L191.3,72z M195.1,78v-6.8h0.9V78H195.1L195.1,78z M195.1,69.8v-1.3h0.9v1.3H195.1L195.1,69.8z M202.9,78.1
		c-0.5,0-1-0.1-1.5-0.3c-0.5-0.2-0.9-0.4-1.3-0.8l0.4-0.6c0.4,0.3,0.8,0.5,1.2,0.7c0.4,0.2,0.8,0.2,1.3,0.2c0.5,0,1-0.1,1.3-0.3
		c0.3-0.2,0.5-0.5,0.5-0.9c0-0.2,0-0.3-0.1-0.5c-0.1-0.1-0.2-0.2-0.4-0.3c-0.2-0.1-0.4-0.2-0.6-0.3c-0.3-0.1-0.6-0.1-0.9-0.2
		c-0.4-0.1-0.7-0.2-1-0.3c-0.3-0.1-0.5-0.2-0.7-0.3c-0.2-0.1-0.3-0.3-0.4-0.4c-0.1-0.2-0.1-0.4-0.1-0.7c0-0.3,0.1-0.6,0.2-0.9
		c0.1-0.3,0.3-0.5,0.5-0.6c0.2-0.2,0.5-0.3,0.8-0.4c0.3-0.1,0.6-0.1,1-0.1c0.5,0,1,0.1,1.4,0.3c0.4,0.2,0.8,0.4,1,0.7l-0.4,0.5
		c-0.3-0.3-0.6-0.5-0.9-0.6c-0.4-0.1-0.7-0.2-1.1-0.2c-0.2,0-0.5,0-0.6,0.1c-0.2,0-0.4,0.1-0.5,0.2c-0.2,0.1-0.3,0.2-0.4,0.4
		c-0.1,0.2-0.1,0.3-0.1,0.6c0,0.2,0,0.3,0.1,0.4c0.1,0.1,0.2,0.2,0.3,0.3c0.1,0.1,0.3,0.2,0.5,0.2c0.2,0.1,0.5,0.1,0.8,0.2
		c0.4,0.1,0.8,0.2,1.1,0.3c0.3,0.1,0.6,0.2,0.8,0.4c0.2,0.1,0.4,0.3,0.5,0.5c0.1,0.2,0.2,0.4,0.2,0.7c0,0.6-0.2,1.1-0.7,1.5
		C204.3,78,203.7,78.1,202.9,78.1L202.9,78.1z M212.5,78.1c-0.5,0-0.9-0.1-1.4-0.3c-0.4-0.2-0.8-0.4-1.1-0.8
		c-0.3-0.3-0.5-0.7-0.7-1.1c-0.2-0.4-0.3-0.9-0.3-1.4c0-0.5,0.1-0.9,0.3-1.3c0.2-0.4,0.4-0.8,0.7-1.1c0.3-0.3,0.7-0.6,1.1-0.8
		c0.4-0.2,0.9-0.3,1.3-0.3c0.5,0,0.9,0.1,1.4,0.3c0.4,0.2,0.8,0.4,1.1,0.8c0.3,0.3,0.5,0.7,0.7,1.1c0.2,0.4,0.2,0.9,0.2,1.3
		c0,0.1,0,0.1,0,0.2c0,0.1,0,0.1,0,0.1H210c0,0.4,0.1,0.7,0.3,1c0.1,0.3,0.3,0.6,0.6,0.8c0.2,0.2,0.5,0.4,0.8,0.5
		c0.3,0.1,0.6,0.2,0.9,0.2c0.2,0,0.4,0,0.6-0.1c0.2-0.1,0.4-0.1,0.6-0.2c0.2-0.1,0.3-0.2,0.5-0.4c0.1-0.2,0.3-0.3,0.3-0.5l0.8,0.2
		c-0.1,0.3-0.3,0.5-0.4,0.7c-0.2,0.2-0.4,0.4-0.7,0.5c-0.3,0.2-0.5,0.3-0.8,0.4C213.1,78.1,212.8,78.1,212.5,78.1L212.5,78.1z
		 M215,74.3c0-0.4-0.1-0.7-0.3-1c-0.1-0.3-0.3-0.6-0.5-0.8c-0.2-0.2-0.5-0.4-0.8-0.5c-0.3-0.1-0.6-0.2-0.9-0.2
		c-0.3,0-0.6,0.1-0.9,0.2c-0.3,0.1-0.6,0.3-0.8,0.5c-0.2,0.2-0.4,0.5-0.5,0.8c-0.1,0.3-0.2,0.6-0.2,1H215L215,74.3z M222.1,78.1
		c-0.5,0-1-0.1-1.5-0.3c-0.5-0.2-0.9-0.4-1.3-0.8l0.4-0.6c0.4,0.3,0.8,0.5,1.2,0.7c0.4,0.2,0.8,0.2,1.3,0.2c0.5,0,1-0.1,1.3-0.3
		c0.3-0.2,0.5-0.5,0.5-0.9c0-0.2,0-0.3-0.1-0.5c-0.1-0.1-0.2-0.2-0.4-0.3c-0.2-0.1-0.4-0.2-0.6-0.3c-0.3-0.1-0.6-0.1-0.9-0.2
		c-0.4-0.1-0.7-0.2-1-0.3c-0.3-0.1-0.5-0.2-0.7-0.3c-0.2-0.1-0.3-0.3-0.4-0.4c-0.1-0.2-0.1-0.4-0.1-0.7c0-0.3,0.1-0.6,0.2-0.9
		c0.1-0.3,0.3-0.5,0.5-0.6c0.2-0.2,0.5-0.3,0.8-0.4c0.3-0.1,0.6-0.1,1-0.1c0.5,0,1,0.1,1.4,0.3c0.4,0.2,0.8,0.4,1,0.7l-0.4,0.5
		c-0.3-0.3-0.6-0.5-0.9-0.6c-0.4-0.1-0.7-0.2-1.1-0.2c-0.2,0-0.5,0-0.6,0.1c-0.2,0-0.4,0.1-0.5,0.2c-0.2,0.1-0.3,0.2-0.4,0.4
		c-0.1,0.2-0.1,0.3-0.1,0.6c0,0.2,0,0.3,0.1,0.4c0.1,0.1,0.2,0.2,0.3,0.3c0.1,0.1,0.3,0.2,0.5,0.2c0.2,0.1,0.5,0.1,0.8,0.2
		c0.4,0.1,0.8,0.2,1.1,0.3c0.3,0.1,0.6,0.2,0.8,0.4c0.2,0.1,0.4,0.3,0.5,0.5c0.1,0.2,0.2,0.4,0.2,0.7c0,0.6-0.2,1.1-0.7,1.5
		C223.5,78,222.9,78.1,222.1,78.1z"/>
</g>
</svg>
